<?xml version="1.0" encoding="UTF-8" standalone="no"?><!DOCTYPE svg PUBLIC "-//W3C//DTD SVG 1.1//EN" "http://www.w3.org/Graphics/SVG/1.1/DTD/svg11.dtd"><svg width="100%" height="100%" viewBox="0 0 150 150" version="1.1" xmlns="http://www.w3.org/2000/svg" xmlns:xlink="http://www.w3.org/1999/xlink" xml:space="preserve" xmlns:serif="http://www.serif.com/" style="fill-rule:evenodd;clip-rule:evenodd;stroke-linejoin:round;stroke-miterlimit:2;"><g id="Vimeo-Icon" serif:id="Vimeo Icon"><circle cx="75" cy="75" r="75"/><path d="M26.421,59.823c-0,0 5.842,-5.194 11.606,-10.319c6.87,-6.108 12.281,-11 18.901,-9.749c6.619,1.25 8.606,7.608 9.47,12.958c1.723,10.661 5.155,36.536 10.578,36.536c3.564,0 15.164,-15.79 15.164,-24.728c0,-7.291 -7.843,-6.614 -13.119,-4.486c0,0 3.465,-12.887 13.119,-18.693c9.655,-5.807 21.631,-4.263 25.454,6.335c2.844,7.886 1.521,18.976 -14.668,41.572c-13.298,18.56 -25.621,28.751 -35.129,28.751c-7.15,0 -11.691,-9.138 -13.787,-15.973c-5.504,-17.95 -9.033,-40.943 -15.983,-40.943c-0.777,0 -2.186,0.606 -7.248,4.325" style="fill:#a3c6d0;"/></g></svg>