<?xml version="1.0" encoding="UTF-8" standalone="no"?><!DOCTYPE svg PUBLIC "-//W3C//DTD SVG 1.1//EN" "http://www.w3.org/Graphics/SVG/1.1/DTD/svg11.dtd"><svg width="100%" height="100%" viewBox="0 0 336 290" version="1.1" xmlns="http://www.w3.org/2000/svg" xmlns:xlink="http://www.w3.org/1999/xlink" xml:space="preserve" xmlns:serif="http://www.serif.com/" style="fill-rule:evenodd;clip-rule:evenodd;stroke-linejoin:round;stroke-miterlimit:2;"><path id="Vimeo-Logo-SVG" serif:id="Vimeo Logo SVG" d="M0.952,79.249c0,-0 21.133,-18.79 41.984,-37.328c24.852,-22.097 44.427,-39.792 68.371,-35.269c23.945,4.523 31.132,27.523 34.259,46.876c6.231,38.565 18.647,132.164 38.265,132.164c12.893,0 54.853,-57.118 54.853,-89.451c-0,-26.374 -28.372,-23.926 -47.456,-16.226c-0,-0 12.532,-46.619 47.456,-67.622c34.923,-21.004 78.247,-15.418 92.074,22.917c10.29,28.527 5.504,68.642 -53.059,150.382c-48.101,67.137 -92.68,104.003 -127.075,104.003c-25.861,-0 -42.29,-33.056 -49.872,-57.781c-19.911,-64.93 -32.675,-148.105 -57.816,-148.105c-2.812,0 -7.907,2.191 -26.217,15.644"/></svg>