<?xml version="1.0" encoding="UTF-8" standalone="no"?><!DOCTYPE svg PUBLIC "-//W3C//DTD SVG 1.1//EN" "http://www.w3.org/Graphics/SVG/1.1/DTD/svg11.dtd"><svg width="100%" height="100%" viewBox="0 0 364 320" version="1.1" xmlns="http://www.w3.org/2000/svg" xmlns:xlink="http://www.w3.org/1999/xlink" xml:space="preserve" xmlns:serif="http://www.serif.com/" style="fill-rule:evenodd;clip-rule:evenodd;stroke-linejoin:round;stroke-miterlimit:2;"><path id="ArtStation-Logo-SVG-01" serif:id="ArtStation Logo SVG 01" d="M359.071,228.25c6.431,11.138 6.431,24.862 0,36c-12.563,21.76 -32.043,55.5 -32.043,55.5l-184.463,-319.5l64.086,0c12.861,-0 24.746,6.862 31.177,18c26.249,45.465 94.994,164.535 121.243,210Zm-132.213,18l42.435,73.5l-205.537,-0c-12.861,0 -24.746,-6.862 -31.176,-18c-12.564,-21.76 -32.043,-55.5 -32.043,-55.5l226.321,-0Zm-28.868,-50l-168.586,-0l84.293,-146l84.293,146Z"/></svg>