<?xml version="1.0" encoding="UTF-8" standalone="no"?><!DOCTYPE svg PUBLIC "-//W3C//DTD SVG 1.1//EN" "http://www.w3.org/Graphics/SVG/1.1/DTD/svg11.dtd"><svg width="100%" height="100%" viewBox="0 0 500 489" version="1.1" xmlns="http://www.w3.org/2000/svg" xmlns:xlink="http://www.w3.org/1999/xlink" xml:space="preserve" xmlns:serif="http://www.serif.com/" style="fill-rule:evenodd;clip-rule:evenodd;stroke-linejoin:round;stroke-miterlimit:2;"><path id="GitHub-Logo-SVG" serif:id="GitHub Logo SVG" d="M250,0.565c117.352,0 250,86.419 250,250c0,163.581 -129.943,223.286 -165.538,235.631c-15.51,5.379 -23.246,0.356 -23.246,-16.06c-0,-16.416 -0.029,-75.92 -0.029,-75.92c-1.833,-22.214 -16.152,-34.069 -16.152,-34.069c25.117,-2.121 88.887,-11.549 106.646,-70.139c25.552,-84.302 -17.981,-119.745 -17.981,-119.745c13.185,-35.935 -2.463,-67.548 -2.463,-67.548c-34.985,1.087 -69.108,26.886 -69.108,26.886c-19.769,-6.074 -41.449,-8.993 -62.129,-8.993c-20.68,0 -42.36,2.919 -62.129,8.993c0,-0 -34.123,-25.799 -69.108,-26.886c0,0 -15.648,31.613 -2.463,67.548c-0,-0 -43.533,35.443 -17.981,119.745c17.759,58.59 81.529,68.018 106.646,70.139c-0,-0 -14.319,11.855 -16.152,34.069c0,0 -18.266,8.467 -37.579,5.921c-17.162,-2.261 -27.761,-13.966 -36.846,-28.7c-8.333,-13.514 -22.724,-24.135 -37.239,-24.135c-14.515,-0 -14.661,7.21 0,15.909c14.661,8.698 19.886,17.768 25.494,33.681c5.607,15.913 16.401,27.391 36.608,31.706c15.229,3.251 34.333,3.251 49.562,-0c0,-0 -0.029,25.122 -0.029,41.538c0,16.416 -7.736,21.439 -23.246,16.06c-35.595,-12.345 -165.538,-72.05 -165.538,-235.631c0,-163.581 132.648,-250 250,-250Z"/></svg>