<?xml version="1.0" encoding="UTF-8" standalone="no"?><!DOCTYPE svg PUBLIC "-//W3C//DTD SVG 1.1//EN" "http://www.w3.org/Graphics/SVG/1.1/DTD/svg11.dtd"><svg width="100%" height="100%" viewBox="0 0 270 272" version="1.1" xmlns="http://www.w3.org/2000/svg" xmlns:xlink="http://www.w3.org/1999/xlink" xml:space="preserve" xmlns:serif="http://www.serif.com/" style="fill-rule:evenodd;clip-rule:evenodd;stroke-linejoin:round;stroke-miterlimit:2;"><path id="LinkedIn-Logo-SVG" serif:id="LinkedIn Logo SVG" d="M32.497,0.524c17.937,-0 32.5,14.563 32.5,32.5c-0,17.937 -14.563,32.5 -32.5,32.5c-17.937,-0 -32.5,-14.563 -32.5,-32.5c-0,-17.937 14.563,-32.5 32.5,-32.5Zm27.5,88.952l-55,0l-0,182l55,0l-0,-182Zm89.402,0l-53.402,0l-0,182l55,0l-0,-91c-0,-17.42 2.233,-45.65 34.23,-45.65c31.997,-0 29.77,33.821 29.77,45.65l-0,91l55,0l-0,-91c-0,-32.984 1.686,-86.828 -50.519,-94.069c-52.205,-7.241 -70.079,28.793 -70.079,28.793l0,-25.724Z"/></svg>