<?xml version="1.0" encoding="UTF-8" standalone="no"?><!DOCTYPE svg PUBLIC "-//W3C//DTD SVG 1.1//EN" "http://www.w3.org/Graphics/SVG/1.1/DTD/svg11.dtd"><svg width="100%" height="100%" viewBox="0 0 414 290" version="1.1" xmlns="http://www.w3.org/2000/svg" xmlns:xlink="http://www.w3.org/1999/xlink" xml:space="preserve" xmlns:serif="http://www.serif.com/" style="fill-rule:evenodd;clip-rule:evenodd;stroke-linejoin:round;stroke-miterlimit:2;"><path id="YouTube-Logo-SVG" serif:id="YouTube Logo SVG" d="M207,289.056c14.006,-0 96.17,0.048 148.912,-6.3c30.271,-3.644 45.367,-17.833 50.991,-47.799c5.087,-27.104 6.573,-59.971 6.573,-89.957c-0,-29.986 -1.486,-62.853 -6.573,-89.957c-5.624,-29.966 -20.72,-44.155 -50.991,-47.799c-52.742,-6.348 -136.206,-6.3 -148.912,-6.3c-12.706,0 -96.17,-0.048 -148.912,6.3c-30.271,3.644 -45.367,17.833 -50.991,47.799c-5.087,27.104 -6.573,59.971 -6.573,89.957c0,29.986 1.486,62.853 6.573,89.957c5.624,29.966 20.72,44.155 50.991,47.799c52.742,6.348 134.906,6.3 148.912,6.3Zm67.5,-144.056l-108,62.354l-0,-124.708l108,62.354Z"/></svg>