<?xml version="1.0" encoding="UTF-8" standalone="no"?><!DOCTYPE svg PUBLIC "-//W3C//DTD SVG 1.1//EN" "http://www.w3.org/Graphics/SVG/1.1/DTD/svg11.dtd"><svg width="100%" height="100%" viewBox="0 0 396 324" version="1.1" xmlns="http://www.w3.org/2000/svg" xmlns:xlink="http://www.w3.org/1999/xlink" xml:space="preserve" xmlns:serif="http://www.serif.com/" style="fill-rule:evenodd;clip-rule:evenodd;stroke-linejoin:round;stroke-miterlimit:2;"><path id="Twitter-Logo-SVG" serif:id="Twitter Logo SVG" d="M356.051,81.05c-0,-0 9.688,101.654 -69.78,177.225c-121.293,115.345 -265.274,46 -286.219,28.896c45.244,3.941 85.566,-6.866 119.718,-34.114c-36.24,-2.588 -62.764,-19.855 -75.652,-56.573c10.681,2.38 26.883,1.749 36.168,-1.448c-37.608,-7.258 -65.763,-42.221 -64.833,-80.513c11.51,6.48 23.681,9.256 36.34,9.299c-37.238,-26.501 -45.15,-71.393 -24.356,-108.509c45.162,53.772 101.076,82.091 167.614,84.999c-9.241,-47.943 17.587,-77.221 43.437,-90.997c25.85,-13.777 65.956,-13.585 95.402,17.003c17.625,-3.239 34.669,-9.734 51.145,-19.41c-5.702,18.992 -17.314,33.811 -34.742,44.526c15.789,-1.636 31.015,-5.749 45.655,-12.443c-10.278,16.481 -23.411,30.636 -39.897,42.059Z"/></svg>