<?xml version="1.0" encoding="UTF-8" standalone="no"?><!DOCTYPE svg PUBLIC "-//W3C//DTD SVG 1.1//EN" "http://www.w3.org/Graphics/SVG/1.1/DTD/svg11.dtd"><svg width="100%" height="100%" viewBox="0 0 388 288" version="1.1" xmlns="http://www.w3.org/2000/svg" xmlns:xlink="http://www.w3.org/1999/xlink" xml:space="preserve" xmlns:serif="http://www.serif.com/" style="fill-rule:evenodd;clip-rule:evenodd;stroke-linejoin:round;stroke-miterlimit:2;"><path id="Gmail-Logo-SVG-03" serif:id="Gmail Logo SVG 03" d="M0.25,84.69l78.282,58.509c-0,-0 -0,144.657 -0,144.657c-0,0 -57.032,0 -57.032,0c-5.636,0 -11.041,-2.239 -15.026,-6.224c-3.985,-3.985 -6.224,-9.39 -6.224,-15.026l-0,-181.916Zm387.5,0l-0,181.916c0,5.636 -2.239,11.041 -6.224,15.026c-3.985,3.985 -9.39,6.224 -15.026,6.224c0,0 -57.032,0 -57.032,0l0,-144.657l78.282,-58.509Zm-296.718,-50.79l99.207,74.758c2.226,1.678 5.296,1.678 7.522,0l99.207,-74.758l0,103.036c0,-0 -102.968,76.959 -102.968,76.959l-102.968,-76.959l-0,-103.036Zm296.718,35.185l-78.282,58.508l0,-103.112l24.112,-18.17c10.541,-7.943 24.062,-7.673 34.937,-2.268c10.869,5.401 19.233,16 19.233,29.192l-0,35.85Zm-309.218,-44.604l-0,103.112c-0,0 -78.282,-58.508 -78.282,-58.508c0,-0 -0,-35.85 -0,-35.85c-0,-13.192 8.364,-23.791 19.233,-29.192c10.875,-5.405 24.396,-5.675 34.937,2.268l24.112,18.17Z"/></svg>