<?xml version="1.0" encoding="UTF-8" standalone="no"?><!DOCTYPE svg PUBLIC "-//W3C//DTD SVG 1.1//EN" "http://www.w3.org/Graphics/SVG/1.1/DTD/svg11.dtd"><svg width="100%" height="100%" viewBox="0 0 401 400" version="1.1" xmlns="http://www.w3.org/2000/svg" xmlns:xlink="http://www.w3.org/1999/xlink" xml:space="preserve" xmlns:serif="http://www.serif.com/" style="fill-rule:evenodd;clip-rule:evenodd;stroke-linejoin:round;stroke-miterlimit:2;"><path id="SVG-For-VSC-Logo" serif:id="SVG For VSC Logo" d="M181.417,200l119.55,-90.8l0,181.6l-119.55,-90.8Zm-115.418,0c-0,0 -39.077,35.667 -60.029,54.792c-3.317,3.027 -5.209,7.309 -5.214,11.799c-0.005,4.491 1.877,8.777 5.187,11.811c7.219,6.619 16.079,14.743 22.734,20.845c5.696,5.222 14.309,5.627 20.47,0.964c21.729,-16.447 69.182,-52.366 69.182,-52.366c-0,0 120.208,109.537 159.067,144.946c7.228,6.587 17.73,8.129 26.547,3.899c21.716,-10.42 62.249,-29.869 83.388,-40.013c8.322,-3.993 13.617,-12.406 13.617,-21.638l0,-270.078c0,-9.232 -5.295,-17.645 -13.617,-21.638c-21.139,-10.144 -61.672,-29.593 -83.388,-40.013c-8.817,-4.23 -19.319,-2.688 -26.547,3.899c-38.859,35.409 -159.067,144.946 -159.067,144.946c-0,-0 -47.453,-35.919 -69.182,-52.366c-6.161,-4.663 -14.774,-4.258 -20.47,0.964c-6.655,6.102 -15.515,14.226 -22.734,20.845c-3.31,3.034 -5.192,7.32 -5.187,11.811c0.005,4.49 1.897,8.772 5.214,11.799c20.952,19.125 60.029,54.792 60.029,54.792Z"/></svg>