<?xml version="1.0" encoding="UTF-8" standalone="no"?><!DOCTYPE svg PUBLIC "-//W3C//DTD SVG 1.1//EN" "http://www.w3.org/Graphics/SVG/1.1/DTD/svg11.dtd"><svg width="100%" height="100%" viewBox="0 0 420 368" version="1.1" xmlns="http://www.w3.org/2000/svg" xmlns:xlink="http://www.w3.org/1999/xlink" xml:space="preserve" xmlns:serif="http://www.serif.com/" style="fill-rule:evenodd;clip-rule:evenodd;stroke-linejoin:round;stroke-miterlimit:2;"><path id="ZBush-Logo-SVG" serif:id="ZBush Logo SVG" d="M215.65,39.291c0,-19.215 13.252,-38.953 32.467,-38.953c27.896,-0 46.535,44.053 40.646,54.872c-5.89,10.819 -73.113,19.632 -73.113,-15.919Zm-166.614,124.608c-4.882,7.342 -3.938,11.731 4.811,10.64c13.489,-1.682 36.212,-10.437 48.064,-18.468c0.799,-0.56 1.274,-1.474 1.276,-2.449c0.01,-10.497 0.251,-21.02 7.258,-28.824c23.918,-26.642 58.919,-33.861 88.129,-13.157c22.246,15.769 44.027,28.32 44.027,28.32c-22.97,18.859 -44.69,42.268 -62.504,67.369c-10.043,0.832 -137.553,40.013 -176.423,122.257c-7.769,16.438 -3.066,18.651 15.114,18.651c29.802,0 95.288,-29.09 153.014,-101.87c48.697,-3.489 103.242,5.936 132.152,14.625c28.909,8.689 52.778,23.207 44.782,42.966c-3.577,8.839 -3.447,11.233 2.471,18.709c10.026,12.669 39.353,35.26 54.161,41.721c14.808,6.461 14.558,1.644 14.558,0c-0,-29.522 -45.149,-94.187 -95.121,-125.166c-67.883,-42.081 -118.891,-35.057 -118.891,-35.057c15.779,-21.325 31.386,-38.408 51.202,-56.047c36.139,20.177 58.689,5.08 72.033,-5.042c9.989,-7.578 25.714,-22.575 29.245,-32.043c5.986,-16.048 -6.289,-28.311 -24.586,-28.311c-18.298,0 -33.967,11.042 -47.955,22.838c-9.477,-5.365 -45.084,-19.984 -55.595,-22.838c-32.45,-8.811 -62.797,-8.703 -94.229,3.242c-31.432,11.944 -63.119,42.029 -86.993,77.934Zm95.904,86.525c-35.05,2.947 -81.76,22.948 -106.631,47.819c-19.582,19.582 -19.85,43.249 13.031,27.881c31.865,-14.893 72.246,-47.75 93.6,-75.7Zm165.757,-145.593c-9.938,5.337 -9.67,7.503 0.971,8.716c8.549,0.975 22.917,0.165 30.927,-2.978c10.095,-3.96 10.255,-12.181 -1.324,-13.178c-8.623,-0.742 -22.95,3.345 -30.574,7.44Z"/></svg>