<?xml version="1.0" encoding="UTF-8" standalone="no"?><!DOCTYPE svg PUBLIC "-//W3C//DTD SVG 1.1//EN" "http://www.w3.org/Graphics/SVG/1.1/DTD/svg11.dtd"><svg width="100%" height="100%" viewBox="0 0 460 460" version="1.1" xmlns="http://www.w3.org/2000/svg" xmlns:xlink="http://www.w3.org/1999/xlink" xml:space="preserve" xmlns:serif="http://www.serif.com/" style="fill-rule:evenodd;clip-rule:evenodd;stroke-linejoin:round;stroke-miterlimit:2;"><path id="Adobe-Premiere-Logo-SVG" serif:id="Adobe Premiere Logo SVG" d="M460,92c0,-50.776 -41.224,-92 -92,-92l-276,0c-50.776,0 -92,41.224 -92,92l-0,276c-0,50.776 41.224,92 92,92l276,0c50.776,0 92,-41.224 92,-92l0,-276Zm-33.333,0l-0,276c-0,32.379 -26.288,58.667 -58.667,58.667c-0,-0 -276,-0 -276,-0c-32.379,-0 -58.667,-26.288 -58.667,-58.667l0,-276c0,-32.379 26.288,-58.667 58.667,-58.667l276,0c32.379,0 58.667,26.288 58.667,58.667Zm-148.307,85.884c-1.618,0 -1.941,0.314 -1.941,1.879c1.294,10.331 1.618,28.487 1.618,41.948l-0,107.999c-0,1.565 0.646,2.504 2.909,2.504l33.617,0c1.94,0 2.909,-0.626 2.909,-2.504l0,-100.826c7.442,-9.394 26.533,-17.221 49.507,-16.596c2.265,0 2.912,-0.625 2.912,-2.189l-0,-33.157c-0,-1.877 -0.647,-2.189 -2.589,-2.189c-22.326,-0 -40.77,11.26 -51.769,24.398c-0.323,-6.866 -1.616,-14.692 -3.233,-18.762c-0.646,-1.878 -1.616,-2.505 -3.555,-2.505l-30.385,0Zm-176.251,151.692c0,1.548 0.94,2.167 2.505,2.167l32.88,-0c1.879,-0 2.505,-0.929 2.505,-2.477l0,-63.458l19.76,-0c47.361,-0 85.879,-21.334 85.879,-70.56c-0,-34.069 -22.546,-67.462 -83.369,-67.462c-22.896,-0 -46.068,0.618 -57.968,0.927c-1.566,0 -2.192,0.928 -2.192,2.474l0,198.389Zm37.89,-168.707c3.451,-0.309 12.233,-0.619 23.21,-0.619c28.856,0 45.165,13.318 45.165,35.927c0,28.185 -22.268,36.857 -48.615,36.857c-10.35,-0 -14.428,-0 -19.76,-0.31l0,-71.855Z"/></svg>