<?xml version="1.0" encoding="UTF-8" standalone="no"?><!DOCTYPE svg PUBLIC "-//W3C//DTD SVG 1.1//EN" "http://www.w3.org/Graphics/SVG/1.1/DTD/svg11.dtd"><svg width="100%" height="100%" viewBox="0 0 300 276" version="1.1" xmlns="http://www.w3.org/2000/svg" xmlns:xlink="http://www.w3.org/1999/xlink" xml:space="preserve" xmlns:serif="http://www.serif.com/" style="fill-rule:evenodd;clip-rule:evenodd;stroke-linejoin:round;stroke-miterlimit:2;"><path id="DaVinci-Resolve-Logo-SVG" serif:id="DaVinci Resolve Logo SVG" d="M9.219,244.417c17.112,29.639 55.067,39.809 84.705,22.697c29.639,-17.112 51.715,-91.53 47.416,-98.977c-4.3,-7.446 -79.786,-25.537 -109.424,-8.425c-29.639,17.112 -39.809,55.067 -22.697,84.705Zm281.562,0c-17.112,29.639 -55.067,39.809 -84.705,22.697c-29.639,-17.112 -51.715,-91.53 -47.416,-98.977c4.3,-7.446 79.786,-25.537 109.424,-8.425c29.639,17.112 39.809,55.067 22.697,84.705Zm-140.781,-243.84c34.224,0 62.009,27.786 62.009,62.009c-0,34.224 -53.41,90.551 -62.009,90.551c-8.599,0 -62.009,-56.327 -62.009,-90.551c0,-34.223 27.785,-62.009 62.009,-62.009Z"/></svg>