<?xml version="1.0" encoding="UTF-8" standalone="no"?><!DOCTYPE svg PUBLIC "-//W3C//DTD SVG 1.1//EN" "http://www.w3.org/Graphics/SVG/1.1/DTD/svg11.dtd"><svg width="100%" height="100%" viewBox="0 0 500 412" version="1.1" xmlns="http://www.w3.org/2000/svg" xmlns:xlink="http://www.w3.org/1999/xlink" xml:space="preserve" xmlns:serif="http://www.serif.com/" style="fill-rule:evenodd;clip-rule:evenodd;stroke-linejoin:round;stroke-miterlimit:2;"><path id="Audacity-Logo-SVG" serif:id="Audacity Logo SVG" d="M250,0.605c97.602,-0 191.326,57.021 191.326,154.623l-0,12.945c-0,0 58.674,24.9 58.674,119.678c0,126.476 -89.843,123.538 -89.843,123.538l-0,-256.161c-0,-76.811 -83.346,-123.454 -160.157,-123.454c-76.811,-0 -160.157,46.643 -160.157,123.454l0,256.161c0,0 -89.843,2.938 -89.843,-123.538c0,-94.778 58.674,-119.678 58.674,-119.678l0,-12.945c0,-97.602 93.724,-154.623 191.326,-154.623Zm-128.906,268.097l11.335,43.418l0.486,-53.654l11.4,18.774l8.01,-74.294l8.313,93.465l10.789,-25.891l4.286,-95.727l8.382,95.727l7.048,14.363l11.906,-140.832l23.538,162.259l23.111,-178.984l4.538,160.944l7.277,-22.042l15.883,-91.435l15.859,105.246l7.261,-29.666l11.954,-104.157l12.087,120.471l3.589,14.23l19.58,-73.971l4.09,56.383l7.503,13.477l7.673,-50.306l4.573,66.154l7.335,-19.859l0,-97.73c3.658,-5.913 12.576,-10.753 19.529,-10.753l0,247.077c-6.953,0 -15.871,-4.84 -19.529,-10.752l0,-71.009l-7.335,-15.212l-4.573,35.116l-11.476,-38.131l-19.442,84.451l-4.474,-88.922l-10.883,22.407l-4.276,70.796l-19.606,-92.124l-19.713,84.494l-7.806,-79.828l-23.301,94.903l-8.035,-96.177l-7.034,21.004l-1.817,62.776l-25.699,-98.77l-12.287,88.411l-11.309,-66.1l-7.55,-8.324l-0.493,73.742l-12.249,-55.621l-6.95,-18.121l-0.267,73.742l-11.228,-56.136l-4.557,44.728l-11.54,-39.461l-3.906,-3.303l-0,70.669c-3.658,5.912 -12.576,10.752 -19.529,10.752l-0,-247.077c6.953,0 15.871,4.84 19.529,10.753l-0,93.637Z"/></svg>