<?xml version="1.0" encoding="UTF-8" standalone="no"?><!DOCTYPE svg PUBLIC "-//W3C//DTD SVG 1.1//EN" "http://www.w3.org/Graphics/SVG/1.1/DTD/svg11.dtd"><svg width="100%" height="100%" viewBox="0 0 404 442" version="1.1" xmlns="http://www.w3.org/2000/svg" xmlns:xlink="http://www.w3.org/1999/xlink" xml:space="preserve" xmlns:serif="http://www.serif.com/" style="fill-rule:evenodd;clip-rule:evenodd;stroke-linejoin:round;stroke-miterlimit:2;"><path id="AutoCAD-Logo-SVG" serif:id="AutoCAD Logo SVG" d="M337.83,375.328l8.251,58.569c-0,0 -58.994,7.367 -58.994,7.367l-11.561,-65.936l62.304,-0Zm-232.007,-0l-15.316,65.867c0,0 -48.48,-7.319 -48.48,-7.319l-5.304,-58.548l69.1,-0Zm240.422,-0l55.09,-0c0,0 -47.656,52.771 -47.656,52.771l-7.434,-52.771Zm-317.89,-0l-27.218,-0l31.427,46.453l-4.209,-46.453Zm-0.754,-8.333l-27.366,-0c-0,-0 23.394,-43.834 23.394,-43.834l3.972,43.834Zm88.715,-0l22.758,-97.869l102.318,-40.223c3.983,22.714 20.28,115.665 24.213,138.092l-149.289,-0Zm132.991,-141.204l24.758,141.204l62.591,-0l-23.432,-166.331l-63.917,25.127Zm154.458,141.204l-58.694,-0c0,-0 -21.047,-149.407 -21.047,-149.407l79.741,149.407Zm-296.004,-0l21.896,-94.168l-98.705,38.803l5.016,55.365c-0,-0 71.793,-0 71.793,-0Zm-72.239,-66.115l155.251,-290.886l-58.824,252.978l-96.427,37.908Zm105.843,-41.609l98.558,-38.745l-38.496,-219.556l-60.062,258.301Zm106.473,-41.857l-37.228,-212.322l100.125,187.597l-62.897,24.725Z"/></svg>