<?xml version="1.0" encoding="UTF-8" standalone="no"?><!DOCTYPE svg PUBLIC "-//W3C//DTD SVG 1.1//EN" "http://www.w3.org/Graphics/SVG/1.1/DTD/svg11.dtd"><svg width="100%" height="100%" viewBox="0 0 488 398" version="1.1" xmlns="http://www.w3.org/2000/svg" xmlns:xlink="http://www.w3.org/1999/xlink" xml:space="preserve" xmlns:serif="http://www.serif.com/" style="fill-rule:evenodd;clip-rule:evenodd;stroke-linejoin:round;stroke-miterlimit:2;"><path id="Blender-Logo-SVG" serif:id="Blender Logo SVG" d="M234.696,9.714c13.477,-13.477 32.72,-9.061 39.997,-3.427c7.278,5.634 157.317,121.794 157.317,121.794c0,-0 55.863,39.163 55.863,112.73l0,3.521c0,84.354 -75.717,152.839 -168.979,152.839c-93.263,-0 -168.98,-68.485 -168.98,-152.839l0,-3.521l-92.555,75.541c-0,0 -27.691,24.119 -49.233,5.196c0,-0 -26.54,-24.521 17.064,-56.416l167.669,-128.639l-100.415,-0c-23.792,-0 -22.647,-20.62 -22.647,-20.62c0,-0 -2.227,-28.217 42.381,-28.217l187.39,-0l-64.872,-52.438c0,-0 -13.763,-11.74 0,-25.504Zm84.198,127.457c56.847,-0 103,41.744 103,93.161c-0,51.417 -46.153,93.162 -103,93.162c-56.848,-0 -103,-41.745 -103,-93.162c-0,-51.417 46.152,-93.161 103,-93.161Zm-0,28.5c36.426,-0 66,26.885 66,60c-0,33.115 -29.574,60 -66,60c-36.427,-0 -66,-26.885 -66,-60c-0,-33.115 29.573,-60 66,-60Z"/></svg>