<?xml version="1.0" encoding="UTF-8" standalone="no"?><!DOCTYPE svg PUBLIC "-//W3C//DTD SVG 1.1//EN" "http://www.w3.org/Graphics/SVG/1.1/DTD/svg11.dtd"><svg width="100%" height="100%" viewBox="0 0 380 384" version="1.1" xmlns="http://www.w3.org/2000/svg" xmlns:xlink="http://www.w3.org/1999/xlink" xml:space="preserve" xmlns:serif="http://www.serif.com/" style="fill-rule:evenodd;clip-rule:evenodd;stroke-linejoin:round;stroke-miterlimit:2;"><path id="Visual-Studio-Logo-SVG" serif:id="Visual Studio Logo SVG" d="M6.386,276.605c-4.021,-3.022 -6.386,-7.76 -6.386,-12.79l0,-143.63c-0,-5.03 2.365,-9.768 6.386,-12.79c13.748,-10.335 46.283,-34.791 63.358,-47.627c6.278,-4.719 15.053,-4.184 20.711,1.263c20.471,19.707 65.83,63.374 65.83,63.374c0,0 74.622,-87.02 101.163,-117.97c5.268,-6.144 14.296,-7.386 21.028,-2.893c23.478,15.67 75.429,50.342 94.406,63.007c4.447,2.968 7.118,7.962 7.118,13.309c0,37.464 0,186.82 0,224.284c-0,5.347 -2.671,10.341 -7.118,13.309c-18.977,12.665 -70.928,47.337 -94.406,63.007c-6.732,4.493 -15.76,3.251 -21.028,-2.893c-26.541,-30.95 -101.163,-117.97 -101.163,-117.97c0,-0 -45.359,43.667 -65.83,63.374c-5.658,5.447 -14.433,5.982 -20.711,1.263c-17.075,-12.836 -49.61,-37.292 -63.358,-47.627Zm278.708,-140.552l-57.928,55.947l57.928,55.947l-0,-111.894Zm-221.483,16.253l-0,79.388l34.04,-39.694l-34.04,-39.694Z"/></svg>