<?xml version="1.0" encoding="UTF-8" standalone="no"?><!DOCTYPE svg PUBLIC "-//W3C//DTD SVG 1.1//EN" "http://www.w3.org/Graphics/SVG/1.1/DTD/svg11.dtd"><svg width="100%" height="100%" viewBox="0 0 150 150" version="1.1" xmlns="http://www.w3.org/2000/svg" xmlns:xlink="http://www.w3.org/1999/xlink" xml:space="preserve" xmlns:serif="http://www.serif.com/" style="fill-rule:evenodd;clip-rule:evenodd;stroke-linejoin:round;stroke-miterlimit:2;"><g id="ArtStation-Icon" serif:id="ArtStation Icon"><circle cx="75" cy="75" r="75"/><path d="M119.39,88.516c1.651,2.859 1.651,6.381 0,9.24c-3.224,5.585 -8.224,14.244 -8.224,14.244l-47.342,-82l16.447,0c3.301,-0 6.351,1.761 8.002,4.62c6.737,11.668 24.38,42.228 31.117,53.896Zm-33.932,4.62l10.891,18.864l-52.752,-0c-3.301,0 -6.351,-1.761 -8.001,-4.62c-3.225,-5.585 -8.224,-14.244 -8.224,-14.244l58.086,0Zm-7.409,-12.832l-43.268,-0l21.634,-37.471l21.634,37.471Z" style="fill:#fff;"/></g></svg>