<?xml version="1.0" encoding="UTF-8" standalone="no"?><!DOCTYPE svg PUBLIC "-//W3C//DTD SVG 1.1//EN" "http://www.w3.org/Graphics/SVG/1.1/DTD/svg11.dtd"><svg width="100%" height="100%" viewBox="0 0 150 150" version="1.1" xmlns="http://www.w3.org/2000/svg" xmlns:xlink="http://www.w3.org/1999/xlink" xml:space="preserve" xmlns:serif="http://www.serif.com/" style="fill-rule:evenodd;clip-rule:evenodd;stroke-linejoin:round;stroke-miterlimit:2;"><g id="LinkedIn-Icon" serif:id="LinkedIn Icon"><circle cx="75" cy="75" r="75"/><path d="M46.249,37c5.031,-0 9.116,4.085 9.116,9.116c-0,5.031 -4.085,9.116 -9.116,9.116c-5.032,-0 -9.116,-4.085 -9.116,-9.116c-0,-5.031 4.084,-9.116 9.116,-9.116Zm7.713,24.95l-15.427,0l0,51.05l15.427,-0l0,-51.05Zm25.077,0l-14.979,0l-0,51.05l15.427,-0l0,-25.525c0,-4.886 0.626,-12.804 9.601,-12.804c8.975,-0 8.351,9.486 8.351,12.804l-0,25.525l15.427,0l-0,-25.525c-0,-9.252 0.472,-24.354 -14.171,-26.385c-14.643,-2.032 -19.656,8.076 -19.656,8.076l-0,-7.216Z" style="fill:#fff;"/></g></svg>