<?xml version="1.0" encoding="UTF-8" standalone="no"?><!DOCTYPE svg PUBLIC "-//W3C//DTD SVG 1.1//EN" "http://www.w3.org/Graphics/SVG/1.1/DTD/svg11.dtd"><svg width="100%" height="100%" viewBox="0 0 377 482" version="1.1" xmlns="http://www.w3.org/2000/svg" xmlns:xlink="http://www.w3.org/1999/xlink" xml:space="preserve" xmlns:serif="http://www.serif.com/" style="fill-rule:evenodd;clip-rule:evenodd;stroke-linejoin:round;stroke-miterlimit:2;"><path id="_3DS-Max-Logo-SVG" serif:id="3DS Max Logo SVG" d="M160.117,395.167l-159.322,-0l40.121,86.039l212.426,0l-93.225,-86.039Zm216.779,-141.965l-114.122,225.369l-94.303,-87.034l208.425,-138.335Zm-225.809,133.631l-134.205,0c0,0 94.976,-36.205 94.976,-36.205l39.229,36.205Zm14.825,-56.81l0,53.211l188.348,-125.01l-188.348,71.799Zm-45.358,17.29l37.025,34.172l-0,-48.286l-37.025,14.114Zm-6.839,-206.315l43.864,16.721l-0,166.562l-43.864,16.721c0,0 -108.354,-100.002 -108.354,-100.002c-0,0 108.354,-100.002 108.354,-100.002l0,-0Zm52.197,180.106l0,-160.208c0,-0 166.757,63.568 210.136,80.104l-210.136,80.104Zm2.559,-230.641l94.303,-87.034c16.904,33.383 114.122,225.369 114.122,225.369l-208.425,-138.335Zm-2.559,61.514l188.348,71.799l-188.348,-125.01l0,53.211Zm-45.358,-17.29l37.025,14.114l-0,-48.286l-37.025,34.172Zm-103.672,-39.52l134.205,-0l-39.229,36.205l-94.976,-36.205Zm236.46,-94.373l-93.225,86.039l-159.322,0c-0,0 40.121,-86.039 40.121,-86.039l212.426,-0Z"/></svg>