<?xml version="1.0" encoding="UTF-8" standalone="no"?><!DOCTYPE svg PUBLIC "-//W3C//DTD SVG 1.1//EN" "http://www.w3.org/Graphics/SVG/1.1/DTD/svg11.dtd"><svg width="100%" height="100%" viewBox="0 0 398 428" version="1.1" xmlns="http://www.w3.org/2000/svg" xmlns:xlink="http://www.w3.org/1999/xlink" xml:space="preserve" xmlns:serif="http://www.serif.com/" style="fill-rule:evenodd;clip-rule:evenodd;stroke-linejoin:round;stroke-miterlimit:2;"><path id="AutoCAD-Logo-SVG-02" serif:id="AutoCAD Logo SVG 02" d="M340.722,421.092l-7.703,-54.681l-58.012,0l10.79,61.54l54.925,-6.859Zm-240.522,-54.681l-14.286,61.437c0,-0 -44.959,-6.788 -44.959,-6.788c-0,-0 -4.951,-54.649 -4.951,-54.649l64.196,0Zm245.443,0l6.477,45.984l41.527,-45.984l-48.004,0Zm-322.191,0l-21.39,0l24.698,36.507l-3.308,-36.507Zm92.488,-12.5l21.915,-94.247l98.926,-38.889c-0,-0 23.343,133.136 23.343,133.136l-144.184,0Zm-96.756,-34.616l3.136,34.616l-21.612,0l18.476,-34.616Zm324.698,34.616l53.41,0l-72.563,-135.956l19.153,135.956Zm-35.352,-161.342l22.728,161.342c0,0 -58.443,0 -58.443,0l-24.162,-137.804l59.877,-23.538Zm-278.362,109.429l93.562,-36.781c0,-0 -20.624,88.694 -20.624,88.694l-68.235,0l-4.703,-51.913Zm6.854,-16.126l90.146,-35.438l54.992,-236.499l-145.138,271.937Zm104.27,-40.991l93.285,-36.672l-36.436,-207.809l-56.849,244.481Zm70.624,-238.298l34.534,196.959l58.345,-22.936l-92.879,-174.023Z"/></svg>