<?xml version="1.0" encoding="UTF-8" standalone="no"?><!DOCTYPE svg PUBLIC "-//W3C//DTD SVG 1.1//EN" "http://www.w3.org/Graphics/SVG/1.1/DTD/svg11.dtd"><svg width="100%" height="100%" viewBox="0 0 442 384" version="1.1" xmlns="http://www.w3.org/2000/svg" xmlns:xlink="http://www.w3.org/1999/xlink" xml:space="preserve" xmlns:serif="http://www.serif.com/" style="fill-rule:evenodd;clip-rule:evenodd;stroke-linejoin:round;stroke-miterlimit:2;"><path id="Maya-Logo-SVG-02" serif:id="Maya Logo SVG 02" d="M77.145,215.357l0,167.774c0,0 -76.915,0 -76.915,0c-0,0 -0,-260.17 -0,-260.17l76.915,92.396Zm287.429,-0l76.916,-92.396c-0,0 -0,260.17 -0,260.17l-76.916,0l0,-167.774Zm-68.135,9.532l12.638,37.597c-0,-0 -88.217,105.972 -88.217,105.972l-88.217,-105.972l12.637,-37.597c0,0 75.58,83.017 75.58,83.017l75.579,-83.017Zm55.635,61.011l0,65.271l-28.925,-86.052c0,-0 28.925,-34.746 28.925,-34.746l0,55.527Zm-233.504,-20.781l-28.925,-34.746l0,120.798l28.925,-86.052Zm102.29,-265.082l71.021,211.291l-71.021,78.01l-71.022,-78.01c7.966,-23.698 54.391,-161.813 71.022,-211.291Zm131.214,163.743l-46.003,50.53l12.4,36.891l33.603,-40.366l0,-47.055Zm-262.429,0c0,0 0,47.055 0,47.055l33.603,40.366l12.401,-36.891l-46.004,-50.53Zm2.013,-16.357l48.549,53.326l63.902,-190.111l-112.451,136.785Zm209.855,53.326l48.549,-53.326l-112.452,-136.785l63.903,190.111Zm63.061,-55.357l-118.151,-143.718l191.674,105.825l-73.523,88.32l0,-50.427Zm-169.277,-143.718l-191.674,105.825l73.522,88.32l0,-50.427l118.152,-143.718Z"/></svg>