<?xml version="1.0" encoding="UTF-8" standalone="no"?><!DOCTYPE svg PUBLIC "-//W3C//DTD SVG 1.1//EN" "http://www.w3.org/Graphics/SVG/1.1/DTD/svg11.dtd"><svg width="100%" height="100%" viewBox="0 0 438 496" version="1.1" xmlns="http://www.w3.org/2000/svg" xmlns:xlink="http://www.w3.org/1999/xlink" xml:space="preserve" xmlns:serif="http://www.serif.com/" style="fill-rule:evenodd;clip-rule:evenodd;stroke-linejoin:round;stroke-miterlimit:2;"><path id="Unity-Logo-SVG" serif:id="Unity Logo SVG" d="M437.932,116.799l-0,232.016l-77.483,-44.735l-0,-89.489c-0,-1.072 -0.572,-2.062 -1.5,-2.598c-0.928,-0.536 -2.072,-0.536 -3,0c-17.158,9.906 -78.225,45.163 -92.5,53.405c-1.857,1.072 -3,3.053 -3,5.196l-0,106.81c-0,1.072 0.572,2.062 1.5,2.598c0.928,0.536 2.072,0.536 3,0c17.156,-9.905 77.5,-44.745 77.5,-44.745l77.483,44.735l-200.932,116.008l-200.932,-116.008l77.483,-44.735c0,0 60.344,34.84 77.5,44.745c0.928,0.536 2.072,0.536 3,0c0.928,-0.536 1.5,-1.526 1.5,-2.598c0,-19.812 0,-90.326 0,-106.81c0,-2.143 -1.143,-4.124 -3,-5.196c-14.275,-8.242 -75.342,-43.499 -92.5,-53.405c-0.928,-0.536 -2.072,-0.536 -3,0c-0.928,0.536 -1.5,1.526 -1.5,2.598c0,19.81 0,89.489 0,89.489l-77.483,44.735l0,-232.016l200.932,-116.008l-0,89.47c-0,-0 -60.344,34.839 -77.5,44.745c-0.928,0.535 -1.5,1.526 -1.5,2.598c-0,1.071 0.572,2.062 1.5,2.598c17.158,9.906 78.225,45.163 92.5,53.405c1.856,1.071 4.144,1.071 6,-0c14.275,-8.242 75.342,-43.499 92.5,-53.405c0.928,-0.536 1.5,-1.527 1.5,-2.598c-0,-1.072 -0.572,-2.063 -1.5,-2.598c-17.156,-9.906 -77.5,-44.745 -77.5,-44.745l-0,-89.47l200.932,116.008Z"/></svg>