<?xml version="1.0" encoding="UTF-8" standalone="no"?><!DOCTYPE svg PUBLIC "-//W3C//DTD SVG 1.1//EN" "http://www.w3.org/Graphics/SVG/1.1/DTD/svg11.dtd"><svg width="100%" height="100%" viewBox="0 0 314 318" version="1.1" xmlns="http://www.w3.org/2000/svg" xmlns:xlink="http://www.w3.org/1999/xlink" xml:space="preserve" xmlns:serif="http://www.serif.com/" style="fill-rule:evenodd;clip-rule:evenodd;stroke-linejoin:round;stroke-miterlimit:2;"><path id="Unreal-Logo-SVG" serif:id="Unreal Logo SVG" d="M292.95,15.398c-40.525,33.877 -45.901,76.863 -45.901,76.863l0,133.724c26.002,22.902 66.6,-29.742 66.6,-29.742c-19.55,79.23 -85.364,106.054 -85.364,106.054l-27.843,-27.843l-42.605,42.604c-85.517,-0.658 -125.037,-64.156 -125.037,-64.156c29.748,10.023 27.393,-12.228 27.393,-12.228l0,-113.477c0,-22.363 -18.875,-21.484 -18.875,-21.484c-23.561,0.412 -40.88,52.645 -40.88,52.645c0,-0 -8.223,-128.143 135.512,-157.416c0,0 -26.349,10.947 -32.233,37.825c-0,0 -9.834,44.916 19.439,32.418l0,157.213c0,0 15.957,35.705 60.415,-4.039l0,-132.098c0,-0 -2.061,-16.785 -19.521,-29.718c-0,0 18.754,-2.744 31.956,7.629c0,0 36.127,-47.196 96.944,-54.774"/></svg>