<?xml version="1.0" encoding="UTF-8" standalone="no"?><!DOCTYPE svg PUBLIC "-//W3C//DTD SVG 1.1//EN" "http://www.w3.org/Graphics/SVG/1.1/DTD/svg11.dtd"><svg width="100%" height="100%" viewBox="0 0 460 460" version="1.1" xmlns="http://www.w3.org/2000/svg" xmlns:xlink="http://www.w3.org/1999/xlink" xml:space="preserve" xmlns:serif="http://www.serif.com/" style="fill-rule:evenodd;clip-rule:evenodd;stroke-linejoin:round;stroke-miterlimit:2;"><path id="Adobe-Substance-3D-Painter-Logo-SVG" serif:id="Adobe Substance 3D Painter Logo SVG" d="M460,92c0,-50.776 -41.224,-92 -92,-92l-276,0c-50.776,0 -92,41.224 -92,92l-0,276c-0,50.776 41.224,92 92,92l276,0c50.776,0 92,-41.224 92,-92l0,-276Zm-33.333,0l-0,276c-0,32.379 -26.288,58.667 -58.667,58.667c-0,-0 -276,-0 -276,-0c-32.379,-0 -58.667,-26.288 -58.667,-58.667l0,-276c0,-32.379 26.288,-58.667 58.667,-58.667l276,0c32.379,0 58.667,26.288 58.667,58.667Zm-65.363,215.322c0,-1.866 -0.948,-2.178 -1.896,-1.866c-4.423,0.933 -7.899,1.245 -12.006,1.245c-13.586,-0 -18.01,-6.537 -18.01,-20.234l0,-73.777l30.964,0c1.58,0 2.212,-0.621 2.212,-2.175l0,-27.038c0,-1.554 -0.632,-2.176 -2.212,-2.176l-30.648,0c0,-15.247 0.632,-33.605 1.58,-43.874c-0,-1.556 -0.632,-1.867 -2.212,-1.556l-31.879,4.357c-1.578,0.311 -2.209,1.244 -2.525,2.8c-1.578,7.779 -2.84,27.383 -3.156,38.273l-19.905,0c-1.896,0 -2.528,0.622 -2.528,2.487l0,26.105c0,1.865 0.632,2.486 2.212,2.797l19.905,0l0,81.87c0,30.787 15.466,43.218 41.352,43.218c10.426,0 18.325,-1.243 26.856,-4.35c1.58,-0.622 1.896,-1.865 1.896,-3.73l0,-22.376Zm-263.872,25.272c-0,1.552 0.955,2.173 2.548,2.173l33.442,-0c1.911,-0 2.548,-0.931 2.548,-2.484l0,-63.641l20.098,-0c48.171,-0 87.348,-21.396 87.348,-70.763c-0,-34.168 -22.932,-67.657 -84.796,-67.657c-23.287,-0 -46.856,0.62 -58.959,0.93c-1.592,-0 -2.229,0.93 -2.229,2.48l-0,198.962Zm38.538,-169.193c3.51,-0.311 12.442,-0.621 23.607,-0.621c29.35,-0 45.938,13.356 45.938,36.031c-0,28.265 -22.65,36.962 -49.447,36.962c-10.527,0 -14.674,0 -20.098,-0.31l0,-72.062Z"/></svg>