<?xml version="1.0" encoding="UTF-8" standalone="no"?><!DOCTYPE svg PUBLIC "-//W3C//DTD SVG 1.1//EN" "http://www.w3.org/Graphics/SVG/1.1/DTD/svg11.dtd"><svg width="100%" height="100%" viewBox="0 0 460 460" version="1.1" xmlns="http://www.w3.org/2000/svg" xmlns:xlink="http://www.w3.org/1999/xlink" xml:space="preserve" xmlns:serif="http://www.serif.com/" style="fill-rule:evenodd;clip-rule:evenodd;stroke-linejoin:round;stroke-miterlimit:2;"><path id="Affinity-Designer-Logo-SVG" serif:id="Affinity Designer Logo SVG" d="M460,46c0,-25.388 -20.612,-46 -46,-46l-368,-0c-25.388,-0 -46,20.612 -46,46l0,368c0,25.388 20.612,46 46,46l368,0c25.388,0 46,-20.612 46,-46l0,-368Zm-188.582,-12l-67.468,-0l-169.95,294.362l0,78.038c0,10.818 8.782,19.6 19.6,19.6l155.963,-0l-82.233,-142.432l144.088,-249.568Zm-44.535,392l179.517,0c10.818,0 19.6,-8.782 19.6,-19.6l0,-114.604l-276.599,-0l77.482,134.204Zm61.856,-392l-79.343,137.426l60.835,105.37l155.769,-0l0,-223.196c0,-10.818 -8.782,-19.6 -19.6,-19.6l-117.661,-0Zm-122.858,212.796c-3.573,6.188 -3.573,13.812 -0,20c3.573,6.188 10.175,10 17.32,10l69.709,-0l-52.175,-90.37c0,0 -19.669,34.069 -34.854,60.37Z"/></svg>