<?xml version="1.0" encoding="UTF-8" standalone="no"?><!DOCTYPE svg PUBLIC "-//W3C//DTD SVG 1.1//EN" "http://www.w3.org/Graphics/SVG/1.1/DTD/svg11.dtd"><svg width="100%" height="100%" viewBox="0 0 460 460" version="1.1" xmlns="http://www.w3.org/2000/svg" xmlns:xlink="http://www.w3.org/1999/xlink" xml:space="preserve" xmlns:serif="http://www.serif.com/" style="fill-rule:evenodd;clip-rule:evenodd;stroke-linejoin:round;stroke-miterlimit:2;"><path id="Affinity-Photo-Logo-SVG" serif:id="Affinity Photo Logo SVG" d="M460,46c0,-25.388 -20.612,-46 -46,-46l-368,-0c-25.388,-0 -46,20.612 -46,46l0,368c0,25.388 20.612,46 46,46l368,0c25.388,0 46,-20.612 46,-46l0,-368Zm-397.583,380l209.823,0l-104.911,-181.712l-104.912,181.712Zm227.144,0l116.839,0c10.818,0 19.6,-8.782 19.6,-19.6l-0,-114.604l-213.922,-0l77.483,134.204Zm-255.561,-97.638l0,78.038c0,8.117 4.945,15.089 11.984,18.063l140.51,-243.37l-67.468,-0l-85.026,147.269Zm245.029,-90.112c3.215,-5.569 3.215,-12.431 0,-18c-4.974,-8.616 -12.437,-21.542 -17.411,-30.157c-3.216,-5.57 -9.158,-9 -15.589,-9l-31.822,-0c-6.431,-0 -12.373,3.43 -15.588,9c-4.98,8.624 -12.454,21.57 -17.434,30.195c-3.215,5.569 -3.215,12.431 0,18c4.884,8.458 12.153,21.049 17.037,29.508c3.215,5.569 9.157,9 15.588,9l32.572,-0c6.431,-0 12.373,-3.431 15.589,-9c4.889,-8.468 12.169,-21.078 17.058,-29.546Zm-4.934,38.546l151.905,-0l0,-223.196c0,-8.312 -5.186,-15.423 -12.495,-18.27l-139.41,241.466Zm122.858,-242.796l-193.003,0l-7.566,13.105l96.501,167.145l104.068,-180.25Zm-269.267,132.093l120.075,-0l-60.037,-103.988l-60.038,103.988Z"/></svg>