<?xml version="1.0" encoding="UTF-8" standalone="no"?><!DOCTYPE svg PUBLIC "-//W3C//DTD SVG 1.1//EN" "http://www.w3.org/Graphics/SVG/1.1/DTD/svg11.dtd"><svg width="100%" height="100%" viewBox="0 0 350 442" version="1.1" xmlns="http://www.w3.org/2000/svg" xmlns:xlink="http://www.w3.org/1999/xlink" xml:space="preserve" xmlns:serif="http://www.serif.com/" style="fill-rule:evenodd;clip-rule:evenodd;stroke-linejoin:round;stroke-miterlimit:2;"><path id="Sourcetree-Logo-SVG" serif:id="Sourcetree Logo SVG" d="M121,342.096c-70.198,-22.785 -121,-88.755 -121,-166.496c0,-96.585 78.415,-175 175,-175c96.585,-0 175,78.415 175,175c0,77.741 -50.802,143.711 -121,166.496l-0,87.304c-0,6.627 -5.373,12 -12,12l-84,0c-6.627,-0 -12,-5.373 -12,-12l-0,-87.304Zm54,-225.496c32.563,0 59,26.437 59,59c0,32.563 -26.437,59 -59,59c-32.563,0 -59,-26.437 -59,-59c0,-32.563 26.437,-59 59,-59Z"/></svg>