<?xml version="1.0" encoding="UTF-8" standalone="no"?><!DOCTYPE svg PUBLIC "-//W3C//DTD SVG 1.1//EN" "http://www.w3.org/Graphics/SVG/1.1/DTD/svg11.dtd"><svg width="100%" height="100%" viewBox="0 0 460 460" version="1.1" xmlns="http://www.w3.org/2000/svg" xmlns:xlink="http://www.w3.org/1999/xlink" xml:space="preserve" xmlns:serif="http://www.serif.com/" style="fill-rule:evenodd;clip-rule:evenodd;stroke-linejoin:round;stroke-miterlimit:2;"><path id="Adobe-Illustator-Logo-SVG" serif:id="Adobe Illustator Logo SVG" d="M460,92c0,-50.776 -41.224,-92 -92,-92l-276,0c-50.776,0 -92,41.224 -92,92l-0,276c-0,50.776 41.224,92 92,92l276,0c50.776,0 92,-41.224 92,-92l0,-276Zm-33.333,0l-0,276c-0,32.379 -26.288,58.667 -58.667,58.667c-0,-0 -276,-0 -276,-0c-32.379,-0 -58.667,-26.288 -58.667,-58.667l0,-276c0,-32.379 26.288,-58.667 58.667,-58.667l276,0c32.379,0 58.667,26.288 58.667,58.667Zm-125.071,243.156c-0,1.891 0.997,2.836 3.323,2.836l34.232,-0c2.327,-0 2.991,-0.63 2.991,-2.521l0,-150.636c0,-1.891 -0.664,-2.207 -2.659,-2.207l-35.228,0c-1.662,0 -2.659,0.631 -2.659,2.207l-0,150.321Zm20.273,-173.687c13.96,-0 22.935,-8.818 22.935,-21.731c-0,-12.597 -8.31,-21.73 -22.603,-21.73c-13.295,0 -22.934,8.818 -22.934,21.73c0,12.913 8.974,21.731 22.602,21.731Zm-105.173,121.614l18.22,51.991c0.628,1.245 1.571,1.868 3.141,1.868l35.183,0c1.886,0 2.2,-0.934 1.886,-2.802l-72.566,-199.832c-0.314,-1.557 -0.628,-1.868 -2.199,-1.868l-43.664,-0c-1.257,-0 -1.885,0.934 -1.885,2.179c-0.628,10.585 -1.571,13.698 -2.827,16.812l-64.712,182.398c-0.314,2.179 0.315,3.113 2.199,3.113l31.414,0c1.885,0 2.827,-0.623 3.455,-2.491l17.278,-51.368l75.077,-0Zm-65.025,-33.896c9.424,-28.344 21.989,-64.785 27.015,-85.654l0.314,0c6.283,21.803 21.047,65.097 27.644,85.654l-54.973,0Z"/></svg>