<?xml version="1.0" encoding="UTF-8" standalone="no"?><!DOCTYPE svg PUBLIC "-//W3C//DTD SVG 1.1//EN" "http://www.w3.org/Graphics/SVG/1.1/DTD/svg11.dtd"><svg width="100%" height="100%" viewBox="0 0 446 393" version="1.1" xmlns="http://www.w3.org/2000/svg" xmlns:xlink="http://www.w3.org/1999/xlink" xml:space="preserve" xmlns:serif="http://www.serif.com/" style="fill-rule:evenodd;clip-rule:evenodd;stroke-linejoin:round;stroke-miterlimit:2;"><path id="Maya-Logo-SVG" serif:id="Maya Logo SVG" d="M364.491,221.603l81.082,-97.401c0,0 0,268.012 0,268.012l-81.082,0l-0,-170.611Zm-364.345,-97.401l81.083,97.401l-0,170.611c-0,0 -81.083,0 -81.083,0c0,0 0,-268.012 0,-268.012Zm299.139,103.664l14.137,42.059l-90.562,108.789l-90.563,-108.789l14.137,-42.059l76.426,83.945l76.425,-83.945Zm-209.723,3.748l33.354,40.066l-33.354,99.228l0,-139.294Zm266.595,-0l-33.353,40.066l33.353,99.228l0,-139.294Zm-133.297,-231.115l-73.387,218.326l73.387,80.608l73.386,-80.608l-73.386,-218.326Zm82.846,220.314l13.979,41.588l36.472,-43.812l0,-53.192l-50.451,55.416Zm-165.692,0c-0,0 -13.98,41.588 -13.98,41.588c0,0 -36.472,-43.812 -36.472,-43.812c0,-0 0,-53.192 0,-53.192l50.452,55.416Zm71.679,-213.247l-68.641,204.206l-52.148,-57.28l120.789,-146.926Zm22.334,-0l68.64,204.206l52.149,-57.28l-120.789,-146.926Zm130.464,145.572l-0,55.44l78.82,-94.684l-203.409,-112.304l124.589,151.548Zm-362.082,-39.244l203.409,-112.304l-124.589,151.548l-0,55.44l-78.82,-94.684Z"/></svg>