<?xml version="1.0" encoding="UTF-8" standalone="no"?><!DOCTYPE svg PUBLIC "-//W3C//DTD SVG 1.1//EN" "http://www.w3.org/Graphics/SVG/1.1/DTD/svg11.dtd"><svg width="100%" height="100%" viewBox="0 0 368 478" version="1.1" xmlns="http://www.w3.org/2000/svg" xmlns:xlink="http://www.w3.org/1999/xlink" xml:space="preserve" xmlns:serif="http://www.serif.com/" style="fill-rule:evenodd;clip-rule:evenodd;stroke-linejoin:round;stroke-miterlimit:2;"><path id="_3DS-Max-Logo-SVG-02" serif:id="3DS Max Logo SVG 02" d="M155.302,395.25l-155.237,-0l38.178,81.873l205.77,-0l-88.711,-81.873Zm12.532,-5.444c-0,-0 90.327,83.364 90.327,83.364l109.311,-215.868l-199.638,132.504Zm-143.638,-7.056l117.562,0l-34.364,-31.715l-83.198,31.715Zm139.799,-53.292l0,47.892l169.523,-112.514l-169.523,64.622Zm-12.5,4.765l0,40.504l-31.058,-28.664l31.058,-11.84Zm-41.316,-192.819l41.316,15.75l0,163.692c0,-0 -41.316,15.75 -41.316,15.75c0,-0 -105.746,-97.596 -105.746,-97.596l105.746,-97.596Zm53.816,174.677l202.204,-77.081l-202.204,-77.081l0,154.162Zm3.839,-227.887l199.638,132.504l-109.311,-215.868l-90.327,83.364Zm7.068,19.695l158.616,105.275l-169.523,-64.622c0,-0 0,-47.892 0,-47.892l10.907,7.239Zm-54.465,24.048l31.058,11.84l0,-40.504l-31.058,28.664Zm-74.933,-36.687l96.254,0l-34.364,31.715l-83.198,-31.715l21.308,-0Zm109.798,-12.5l-155.237,-0c0,0 38.178,-81.873 38.178,-81.873l205.77,0l-88.711,81.873Z"/></svg>