<?xml version="1.0" encoding="UTF-8" standalone="no"?><!DOCTYPE svg PUBLIC "-//W3C//DTD SVG 1.1//EN" "http://www.w3.org/Graphics/SVG/1.1/DTD/svg11.dtd"><svg width="100%" height="100%" viewBox="0 0 460 460" version="1.1" xmlns="http://www.w3.org/2000/svg" xmlns:xlink="http://www.w3.org/1999/xlink" xml:space="preserve" xmlns:serif="http://www.serif.com/" style="fill-rule:evenodd;clip-rule:evenodd;stroke-linejoin:round;stroke-miterlimit:2;"><path id="Adobe-Photoshop-Logo-SVG" serif:id="Adobe Photoshop Logo SVG" d="M460,92c0,-50.776 -41.224,-92 -92,-92l-276,0c-50.776,0 -92,41.224 -92,92l-0,276c-0,50.776 41.224,92 92,92l276,0c50.776,0 92,-41.224 92,-92l0,-276Zm-33.333,0l-0,276c-0,32.379 -26.288,58.667 -58.667,58.667c-0,-0 -276,-0 -276,-0c-32.379,-0 -58.667,-26.288 -58.667,-58.667l0,-276c0,-32.379 26.288,-58.667 58.667,-58.667l276,0c32.379,0 58.667,26.288 58.667,58.667Zm-64.023,121.897c1.923,0.621 2.885,-0.31 2.885,-1.863l0,-27.296c0,-1.55 -0.32,-2.79 -1.923,-3.72c-7.695,-3.721 -21.802,-6.201 -40.426,-6.201c-40.126,0 -60.003,22.013 -60.003,45.602c0,22.361 12.503,36.336 47.472,48.759c19.921,7.764 26.026,12.733 26.026,20.497c-0,8.074 -8.033,13.665 -24.74,13.665c-14.454,-0 -32.087,-3.727 -45.873,-12.423c-1.282,-0.621 -2.564,0 -2.564,1.553l-0,29.473c-0,1.86 0.641,2.48 2.244,3.41c9.618,5.271 26.289,8.681 45.229,8.681c39.49,0 63.215,-18.292 63.215,-47.465c-0,-22.05 -12.504,-36.025 -49.078,-49.069c-20.563,-7.764 -25.383,-12.423 -25.383,-19.255c0,-6.522 5.784,-13.354 22.812,-13.354c14.138,0 30.168,3.727 40.107,9.006Zm-268.83,114.855c0,1.556 0.945,2.178 2.52,2.178l33.065,-0c1.89,-0 2.52,-0.933 2.52,-2.489l-0,-63.772l19.871,0c47.628,0 86.363,-21.439 86.363,-70.908c0,-34.237 -22.673,-67.795 -83.84,-67.795c-23.024,-0 -46.328,0.621 -58.294,0.932c-1.575,-0 -2.205,0.932 -2.205,2.485l0,199.369Zm38.105,-169.539c3.469,-0.312 12.301,-0.623 23.341,-0.623c29.018,0 45.42,13.384 45.42,36.105c-0,28.324 -22.395,37.039 -48.89,37.039c-10.409,-0 -14.509,-0 -19.871,-0.312l-0,-72.209Z"/></svg>