<?xml version="1.0" encoding="UTF-8" standalone="no"?><!DOCTYPE svg PUBLIC "-//W3C//DTD SVG 1.1//EN" "http://www.w3.org/Graphics/SVG/1.1/DTD/svg11.dtd"><svg width="100%" height="100%" viewBox="0 0 372 442" version="1.1" xmlns="http://www.w3.org/2000/svg" xmlns:xlink="http://www.w3.org/1999/xlink" xml:space="preserve" xmlns:serif="http://www.serif.com/" style="fill-rule:evenodd;clip-rule:evenodd;stroke-linejoin:round;stroke-miterlimit:2;"><path id="Official-Logo-For-Android" serif:id="Official Logo For Android" d="M168.01,353.727l-0,60.108c-0.017,15.027 -12.221,27.22 -27.25,27.22c-15.029,-0 -27.233,-12.193 -27.25,-27.22l0,-60.108l-19.92,0c-16.016,0 -29,-12.983 -29,-29l0,-176l242.82,0l-0,176c-0,16.017 -12.984,29 -29,29l-19.92,0l-0,60.108c-0.017,15.027 -12.221,27.22 -27.25,27.22c-15.029,-0 -27.233,-12.193 -27.25,-27.22l0,-60.108l-35.98,0Zm203.854,-182.654c-0,-15.04 -12.21,-27.25 -27.25,-27.25c-15.04,-0 -27.25,12.21 -27.25,27.25l-0,113.4c0.017,15.026 12.221,27.219 27.25,27.219c15.029,0 27.233,-12.193 27.25,-27.219l-0,-113.4Zm-371.728,-0c0,-15.04 12.21,-27.25 27.25,-27.25c15.04,-0 27.25,12.21 27.25,27.25l0,113.4c-0.017,15.026 -12.221,27.219 -27.25,27.219c-15.029,0 -27.233,-12.193 -27.25,-27.219l0,-113.4Zm307.264,-32.346l-242.8,0c0,-41.435 24.746,-78.002 61.774,-97.233l-19.184,-34.61c-1.07,-1.93 -0.372,-4.367 1.559,-5.437c1.931,-1.071 4.368,-0.372 5.438,1.559l19.414,35.024c15.816,-6.965 34.933,-10.879 52.399,-10.879c17.466,-0 36.583,3.914 52.399,10.879l19.414,-35.024c1.07,-1.931 3.507,-2.63 5.438,-1.559c1.931,1.07 2.629,3.507 1.559,5.437l-19.184,34.61c37.028,19.231 61.774,55.798 61.774,97.233Zm-177.387,-64.493c5.63,-0 10.2,4.57 10.2,10.2c0,5.629 -4.57,10.2 -10.2,10.2c-5.629,-0 -10.2,-4.571 -10.2,-10.2c0,-5.63 4.571,-10.2 10.2,-10.2Zm111.974,-0c-5.63,-0 -10.2,4.57 -10.2,10.2c-0,5.629 4.57,10.2 10.2,10.2c5.629,-0 10.2,-4.571 10.2,-10.2c-0,-5.63 -4.571,-10.2 -10.2,-10.2Z" style="fill:#a3c6d0;"/></svg>