<?xml version="1.0" encoding="UTF-8" standalone="no"?><!DOCTYPE svg PUBLIC "-//W3C//DTD SVG 1.1//EN" "http://www.w3.org/Graphics/SVG/1.1/DTD/svg11.dtd"><svg width="100%" height="100%" viewBox="0 0 402 488" version="1.1" xmlns="http://www.w3.org/2000/svg" xmlns:xlink="http://www.w3.org/1999/xlink" xml:space="preserve" xmlns:serif="http://www.serif.com/" style="fill-rule:evenodd;clip-rule:evenodd;stroke-linejoin:round;stroke-miterlimit:2;"><path id="Official-Logo-For-Linux" serif:id="Official Logo For Linux" d="M53.906,334.147c-0.348,-3.956 -0.538,-7.837 -0.571,-11.626c-0.316,-36.673 21.255,-78.678 43.389,-107.92c22.135,-29.242 40.211,-49.63 40.211,-88.529c-0,-34.002 -4.273,-34.6 0.059,-68.324c4.332,-33.725 31.097,-53.332 61.444,-56.218c30.347,-2.885 62.351,2.573 76.805,42.59c9.156,25.351 8.252,44.2 8.252,71.154c0,43.16 10.537,51.269 50.116,102.315c23.332,30.092 37.684,64.543 33.751,102.417c-0.654,6.295 -2.121,13.089 -4.274,20.175c8.882,3.453 13.823,11.027 16.06,21.028c3.492,15.611 4.547,19.599 9.725,25.591c5.178,5.991 25.477,28.289 0.52,42.556c-24.958,14.267 -34.701,15.078 -48.815,30.922c-14.114,15.844 -24.4,21.216 -37.231,25.108c-12.83,3.893 -33.135,2.265 -44.689,-15.757c-2.166,-3.379 -3.65,-6.797 -4.587,-10.274l-0.079,-0.3c-18.6,1.404 -35.674,-3.855 -50.677,-3.855c-12.617,-0 -29.713,5.097 -47.642,6.16c-0.604,1.205 -1.29,2.421 -2.064,3.65c-14.062,22.34 -44.436,17.225 -57.243,13.017c-12.807,-4.208 -26.563,-14.231 -49.351,-16.214c-22.787,-1.983 -36.332,-3.575 -42.577,-12.185c-4.418,-6.092 -5.456,-14.073 -1.735,-25.508c3.721,-11.435 3.735,-17.716 0.922,-29.407c-2.813,-11.692 0.353,-27.547 15.961,-32.722c15.607,-5.176 19.686,-7.455 30.039,-22.713c1.157,-1.705 2.587,-3.473 4.281,-5.131Zm236.197,-2.124c1.016,14.034 8.995,28.993 22.888,28.993c10.029,-0 24.117,-7.045 31.442,-16.187c0.18,-0.022 0.361,-0.043 0.542,-0.066c8.709,-1.085 15.171,0.05 19.758,3.345c4.446,3.193 6.937,8.301 8.316,14.465c3.879,17.341 5.343,21.658 11.095,28.313c1.879,2.174 5.991,6.687 8.753,12.181c1.955,3.888 3.403,8.344 1.679,12.637c-1.192,2.97 -3.852,5.692 -8.285,8.226c-25.822,14.761 -35.777,15.797 -50.38,32.191c-13.051,14.65 -22.515,19.685 -34.378,23.285c-10.789,3.273 -27.898,2.004 -37.613,-13.15c-4.909,-7.656 -5.567,-15.569 -4.405,-24.026c1.331,-9.682 4.932,-20.002 8.235,-31.366c6.84,-23.534 3,-33.732 8.257,-57.623c2.335,-10.609 6.709,-17.248 12.427,-20.411c0.547,-0.302 1.103,-0.571 1.669,-0.807Zm-280.605,113.936c-3.444,-4.748 -3.751,-10.994 -0.852,-19.905c4.151,-12.756 4.193,-19.762 1.055,-32.803c-2.16,-8.98 -0.136,-21.353 11.852,-25.328c17.272,-5.727 21.786,-8.25 33.243,-25.136c4.003,-5.899 12.194,-12.955 24.053,-8.654c5.214,1.892 9.86,6.317 14.014,11.42c7.051,8.663 12.525,19.441 15.889,26.317c6.065,12.399 5.683,14.611 22.832,35.848c6.38,7.9 12.493,15.44 16.627,23.045c5.355,9.851 7.115,19.787 0.109,30.918c-5.866,9.318 -15.228,12.744 -24.365,13.568c-9.975,0.9 -19.806,-1.243 -25.638,-3.16c-13.159,-4.323 -27.345,-14.465 -50.76,-16.502c-10.999,-0.957 -19.771,-1.788 -26.544,-3.451c-5.283,-1.297 -9.164,-2.935 -11.515,-6.177Zm92.33,-109.966c10.913,8.137 18.945,11.577 32.815,23.777c13.966,12.284 19.125,24.762 19.125,31.289c-0,6.528 -3.262,13.509 -15.065,13.509c-0.548,-0 -1.098,-0.008 -1.65,-0.025l0.942,1.167c4.784,5.939 9.332,11.709 12.985,17.461c13.914,9.176 30.051,14.481 47.458,14.314c22.211,-0.212 43.634,-8.417 61.404,-21.953c0.634,-2.103 1.275,-4.239 1.906,-6.412c6.792,-23.368 2.935,-33.5 8.155,-57.222c3.46,-15.724 11.222,-23.887 20.255,-26.51c0.513,-5.469 2.228,-10.351 5.217,-13.548c11.443,-12.24 53.912,6.957 53.912,21.08c0,1.769 -0.347,3.535 -0.984,5.273c1.531,-0.081 2.996,-0.092 4.398,-0.034c0.424,-1.923 0.644,-3.943 0.643,-6.051c-0.005,-10.722 -14.874,-22.021 -30.345,-27.715c3.942,-14.959 0.682,-31.81 -2.839,-42.548c-5.58,-17.011 -15.415,-31.351 -28.075,-44.01c-1.842,-1.843 -2.989,-3.504 -4.103,-2.454c-1.114,1.051 0.319,2.301 2.161,4.143c12.079,12.079 20.965,26.813 25.063,43.396c3.049,12.34 3.388,26.87 -1.242,38.824c-3.735,-0.805 -7.337,-1.195 -10.592,-1.078c-4.113,-23.637 -13.765,-43.685 -25.489,-66.825c-15.664,-30.915 -24.37,-57.179 -31.391,-81.159c-0.326,-1.112 -0.641,-2.243 -0.95,-3.389c-3.033,4.053 -7.595,7.767 -13.486,10.601c-4.781,2.3 -7.162,2.67 -11.82,5.212c-4.658,2.541 -9.811,6.661 -17.343,9.717c-8.008,3.25 -20.101,3.411 -27.547,-0.611c-7.445,-4.021 -9.993,-7.793 -14.499,-11.336c-3.068,-2.411 -6.148,-3.96 -9.08,-5.982c-0.139,1.58 -0.285,3.114 -0.454,4.59c-2.614,22.909 -10.477,45.512 -25.287,77.158c-14.717,31.445 -23.234,48.326 -24.499,82.989c-11.214,-12.826 -12.543,-32.964 -8.871,-49.607c3.68,-16.681 17.05,-40.109 19.107,-44.608c1.111,-2.428 1.922,-3.486 0.711,-4.138c-1.212,-0.652 -1.747,0.651 -2.992,2.946c-2.454,4.52 -13.178,20.646 -21.065,44.695c-7.887,24.048 -6.883,49.953 13.411,65.074Zm196.679,-19.461c7.662,-8.197 36.101,4.658 36.101,14.116c0,9.458 -14.848,18.813 -24.305,18.813c-14.618,0 -19.459,-24.733 -11.796,-32.929Zm-149.641,-185.281c3.888,-3.112 10.112,-7.057 13.868,-10.328c3.529,-3.073 5.936,-6.395 14.088,-10.612c7.598,-3.931 16.313,-3.496 24.363,-0.604c9.005,3.233 13.235,6.997 18.071,9.048c4.97,2.108 9.25,3.556 14.341,5.352c7.195,2.537 11.241,6.576 12.116,11.346c1.373,7.488 -4.682,15.692 -15.388,20.842c-4.857,2.336 -7.271,2.723 -12.002,5.305c-4.552,2.484 -9.572,6.536 -16.931,9.523c-7.02,2.849 -17.622,3.101 -24.148,-0.424c-7.171,-3.873 -9.589,-7.551 -13.93,-10.962c-4.374,-3.438 -8.804,-5.029 -12.738,-8.962c-5.947,-5.947 -8.276,-14.269 -1.71,-19.524Zm22.032,-22.182c1.196,-0.74 2.545,-1.507 4.089,-2.305c1.945,-1.006 3.954,-1.766 6.005,-2.302c0.062,-1.773 0.012,-3.596 -0.159,-5.45c-1.415,-15.273 -10.552,-26.934 -20.393,-26.023c-9.841,0.912 -16.683,14.051 -15.269,29.325c0.788,8.507 3.972,15.894 8.339,20.611c2.181,-1.549 4.337,-3.109 6.064,-4.555c-2.829,-2.235 -5.039,-6.878 -5.549,-12.397c-0.745,-8.046 2.402,-14.927 7.023,-15.355c4.621,-0.428 8.978,5.758 9.723,13.805c0.152,1.64 0.142,3.231 -0.009,4.73l0.136,-0.084Zm55.639,8.281c2.721,1.014 5.414,1.942 8.388,2.991c1.481,0.522 2.846,1.104 4.099,1.741c3.99,-5.491 6.566,-12.775 6.89,-20.842c0.711,-17.707 -9.695,-32.524 -23.222,-33.067c-13.528,-0.544 -25.088,13.391 -25.799,31.098c-0.07,1.725 -0.033,3.422 0.101,5.079c1.866,0.406 3.719,0.944 5.541,1.598c2.307,0.829 4.305,1.69 6.082,2.55c-0.217,-1.515 -0.302,-3.109 -0.236,-4.751c0.383,-9.537 5.71,-17.079 11.887,-16.831c6.178,0.248 10.882,8.193 10.499,17.73c-0.205,5.101 -1.823,9.631 -4.23,12.704Zm-76.366,22.237c0.202,0 0.44,0.161 0.748,0.339c0.538,0.311 1.155,0.759 1.829,1.296c3.467,2.759 8.27,7.715 11.604,10.119c4.927,3.553 11.276,7.488 22.465,7.488c11.09,0 19.352,-4.487 23.747,-6.897c2.977,-1.634 12.259,-7.604 19.226,-11.038c2.729,-1.346 5.045,-2.335 6.376,-2.335l-0,-2.916c-1.589,-0 -4.407,1.028 -7.666,2.635c-7.006,3.454 -16.344,9.454 -19.339,11.096c-4.137,2.27 -11.903,6.538 -22.344,6.538c-10.342,0 -16.205,-3.653 -20.759,-6.937c-3.304,-2.382 -8.058,-7.301 -11.493,-10.035c-0.98,-0.78 -1.868,-1.393 -2.601,-1.764c-0.695,-0.352 -1.309,-0.505 -1.793,-0.505l-0,2.916Z" style="fill:#a3c6d0;"/></svg>