<?xml version="1.0" encoding="UTF-8" standalone="no"?><!DOCTYPE svg PUBLIC "-//W3C//DTD SVG 1.1//EN" "http://www.w3.org/Graphics/SVG/1.1/DTD/svg11.dtd"><svg width="100%" height="100%" viewBox="0 0 394 460" version="1.1" xmlns="http://www.w3.org/2000/svg" xmlns:xlink="http://www.w3.org/1999/xlink" xml:space="preserve" xmlns:serif="http://www.serif.com/" style="fill-rule:evenodd;clip-rule:evenodd;stroke-linejoin:round;stroke-miterlimit:2;"><path id="Official-Logo-For-Apple" serif:id="Official Logo For Apple" d="M190.55,112.534c-8.801,-47.154 33.473,-107.266 94.787,-112.534c7.657,61.061 -43.798,114.42 -94.787,112.534Zm202.52,222.905c-37.675,-15.057 -59.503,-49.041 -62.597,-84.595c-3.142,-36.123 13.055,-73.866 51.619,-95.028c-27.005,-35.866 -67.117,-48.719 -89.191,-48.719c-38.904,-0 -58.205,19.592 -87.523,19.592c-29.318,-0 -48.62,-19.592 -87.523,-19.592c-38.904,-0 -133.837,39.924 -114.309,175.394c8.981,62.304 62.483,177.509 125.43,177.509c29.783,-0 37.594,-19.372 76.402,-19.372c38.807,-0 46.619,19.372 76.401,19.372c47.501,-0 89.622,-65.6 111.291,-124.561Z" style="fill:#fff;"/></svg>