<?xml version="1.0" encoding="UTF-8" standalone="no"?><!DOCTYPE svg PUBLIC "-//W3C//DTD SVG 1.1//EN" "http://www.w3.org/Graphics/SVG/1.1/DTD/svg11.dtd"><svg width="100%" height="100%" viewBox="0 0 347 200" version="1.1" xmlns="http://www.w3.org/2000/svg" xmlns:xlink="http://www.w3.org/1999/xlink" xml:space="preserve" xmlns:serif="http://www.serif.com/" style="fill-rule:evenodd;clip-rule:evenodd;stroke-linejoin:round;stroke-miterlimit:2;"><path id="Official-Logo-For-iOS-01" serif:id="Official Logo For iOS 01" d="M118.415,199.011c25.952,-0 47.3,-9.463 62.203,-26.675c14.651,-16.922 23.098,-41.504 23.098,-72.371c0,-30.867 -8.447,-55.449 -23.098,-72.371c-14.903,-17.212 -36.251,-26.675 -62.203,-26.675c-25.952,-0 -47.3,9.463 -62.204,26.675c-14.651,16.922 -23.098,41.504 -23.098,72.371c0,30.867 8.447,55.449 23.098,72.371c14.904,17.212 36.252,26.675 62.204,26.675Zm-0,-10.417c-22.633,0 -41.331,-8.066 -54.329,-23.077c-13.249,-15.302 -20.556,-37.638 -20.556,-65.552c0,-27.914 7.307,-50.25 20.556,-65.552c12.998,-15.011 31.696,-23.077 54.329,-23.077c22.633,-0 41.331,8.066 54.328,23.077c13.25,15.302 20.557,37.638 20.557,65.552c-0,27.914 -7.307,50.25 -20.557,65.552c-12.997,15.011 -31.695,23.077 -54.328,23.077Zm92.48,-43.862c-0,28.367 27.791,54.279 69.739,54.279c37.594,-0 65.981,-21.537 65.981,-54.279c-0,-17.055 -7.948,-28.014 -20.079,-35.724c-11.066,-7.033 -25.87,-11.216 -40.956,-15.017c-14.084,-3.548 -29.376,-7.176 -41.124,-13.614c-10.384,-5.691 -17.879,-13.659 -17.879,-26.497c-0,-28.616 25.968,-42.544 51.574,-42.544c37.561,-0 54.555,23.232 54.555,39.251l10.416,0c0,-19.492 -19.265,-49.668 -64.971,-49.668c-31.227,-0 -61.991,18.063 -61.991,52.961c0,17.097 9.461,28.053 23.29,35.631c12.464,6.831 28.642,10.817 43.585,14.581c13.942,3.513 27.687,7.207 37.913,13.707c9.162,5.823 15.25,14.052 15.25,26.933c0,27.129 -24.415,43.862 -55.564,43.862c-35.019,0 -59.322,-20.18 -59.322,-43.862l-10.417,-0Zm-196.961,51.246l0,-143.291l-10.416,0l-0,143.291l10.416,0Zm-5.208,-195.027c4.682,0 8.484,3.802 8.484,8.484c-0,4.682 -3.802,8.483 -8.484,8.483c-4.682,0 -8.483,-3.801 -8.483,-8.483c-0,-4.682 3.801,-8.484 8.483,-8.484Z" style="fill:#fff;"/></svg>